<?xml version="1.0" encoding="UTF-8"?>
<svg id="Layer_1" data-name="Layer 1" xmlns="http://www.w3.org/2000/svg" viewBox="0 0 1024 1024">
  <defs>
    <style>
      .cls-1 {
        fill: #f5841f;
      }

      .cls-2 {
        fill: #c0ad9e;
      }

      .cls-3 {
        fill: #d7c1b3;
      }

      .cls-4 {
        fill: #cc6228;
      }

      .cls-5 {
        fill: #e27625;
      }

      .cls-6 {
        fill: #2f343b;
      }

      .cls-7 {
        fill: #763e1a;
      }
    </style>
  </defs>
  <path class="cls-1" d="m1013.9,726.3l-70.06-214.68-209-60.5h0s209,60.5,209,60.5l46.05-53.48-20.07-14.44,31.88-28.88-24.4-18.74,31.88-24.2-20.86-16,33.46-161.6-50.38-150.28-380.39,279.93-.05-.05L971.39,44l-323.94,120.22-.02.06.02-.06h-270.01,0S53.51,44,53.51,44l2.12,1.59-2.13-1.57L3.13,194.3l33.85,161.6-21.65,16,32.28,24.2-24.4,18.74,31.88,28.88-20.07,14.44,46.05,53.47L11.39,726.3h.15-.15s64.55,219.37,64.55,219.37l226.32-62.06-.12-.19.12.18h0s0,0,0,0h0s0,0,0,0h0s.01.01.01.01h-.01s.06.03.06.03l44.03,35.87,89.35,61.28h153.11l89.74-61.28,43.68-35.9h0s0,0,0,0h0s0,0,0,0h0s0,0,0,0h0s0,0,0,0l.25-.37-.25.37,226.72,62.06,64.94-219.37h-.15s.15,0,.15,0Zm-291.66,157.3l-135.39-65.18h0s135.39,65.18,135.39,65.18h0Zm-291.66-213.5l-112.57-32.79h0s-90.91-91.7-90.91-91.7l-.02-.03h0s0,0,0,0l90.92,91.73h0s112.57,32.78,112.57,32.78h0s0,0,0,0l26.37,135.04v.02s-26.37-135.04-26.37-135.04Zm137.37,134.95v.09s26.37-135.06,26.37-135.06h0s0,0,0,0l112.96-32.79h0s90.53-91.72,90.53-91.72h0s-90.52,91.73-90.52,91.73l-3.35,85.52h0l3.34-85.51-112.96,32.79-26.37,135.05h0s-111,0-111,0h0s0,0,0,0h111v-.09Zm229.86-259.48h0s-224.35,10.15-224.35,10.15h0s224.35-10.15,224.35-10.15Zm-199.94,360.28l-11.02-87.42h0s11.02,87.42,11.02,87.42h0Zm108.45-182.97l24.29-47.07-24.29,47.07h0Zm-132.85-167.21v.04s0,0,0,0h0s0,0,0,0h0s0,.03,0,.03v-.03s0-.04,0-.04Zm-271.19,327.92l135.78-65.18h0s0,.02,0,.02l-135.77,65.17h-.02Zm125.95,59.33l-.79-37.06h0s.79,37.06.79,37.06h0Zm169.64-37.08h0s-1.18,37.08-1.18,37.08h0s1.18-37.08,1.18-37.08Z"/>
  <g>
    <polygon class="cls-5" points="971.39 44 573.46 336.75 647.46 164.22 971.39 44"/>
    <polygon class="cls-5" points="53.51 44 447.9 339.48 377.45 164.22 53.51 44"/>
    <polygon class="cls-5" points="828.12 722.79 722.24 883.61 948.96 945.67 1013.91 726.31 828.12 722.79"/>
    <polygon class="cls-5" points="11.39 726.31 75.94 945.67 302.27 883.61 196.78 722.79 11.39 726.31"/>
    <polygon class="cls-5" points="290.07 451.12 227.09 545.58 451.44 555.72 443.97 315.67 290.07 451.12"/>
    <polygon class="cls-5" points="734.84 451.11 578.58 312.93 573.46 555.72 797.81 545.57 734.84 451.11"/>
    <polygon class="cls-5" points="302.26 883.6 438.06 818.42 321.16 727.86 302.26 883.6"/>
    <polygon class="cls-5" points="586.84 818.42 722.24 883.6 703.75 727.86 586.84 818.42"/>
    <polygon class="cls-3" points="722.24 883.61 586.84 818.42 597.86 905.85 596.68 942.94 722.24 883.61"/>
    <polygon class="cls-3" points="302.27 883.62 428.22 942.95 427.43 905.87 438.06 818.44 302.27 883.62"/>
    <polygon class="cls-6" points="430.58 670.09 318.01 637.3 397.52 601 430.58 670.09"/>
    <polygon class="cls-6" points="594.32 670.09 627.38 601 707.28 637.3 594.32 670.09"/>
    <polygon class="cls-4" points="302.27 883.61 321.95 722.79 196.78 726.3 302.27 883.61"/>
    <polygon class="cls-4" points="702.95 722.79 722.24 883.61 828.12 726.3 702.95 722.79"/>
    <polygon class="cls-4" points="797.81 545.57 573.46 555.72 594.32 670.09 627.38 601 707.28 637.3 797.81 545.57"/>
    <polygon class="cls-4" points="318.01 637.3 397.52 601 430.58 670.09 451.44 555.72 227.09 545.57 318.01 637.3"/>
    <polygon class="cls-5" points="227.09 545.6 321.16 727.89 318.01 637.33 227.09 545.6"/>
    <polygon class="cls-5" points="707.29 637.3 703.75 727.86 797.82 545.57 707.29 637.3"/>
    <polygon class="cls-5" points="451.44 555.72 430.58 670.09 456.95 805.14 462.86 627.15 451.44 555.72"/>
    <polygon class="cls-5" points="573.46 555.72 562.44 626.76 567.95 805.14 594.32 670.09 573.46 555.72"/>
    <polygon class="cls-1" points="594.32 670.1 567.95 805.16 586.84 818.43 703.74 727.87 707.29 637.31 594.32 670.1"/>
    <polygon class="cls-1" points="318.01 637.31 321.16 727.87 438.06 818.43 456.95 805.16 430.58 670.1 318.01 637.31"/>
    <polygon class="cls-2" points="596.68 942.93 597.86 905.85 587.63 897.26 437.27 897.26 427.43 905.85 428.22 942.93 302.27 883.6 346.35 919.51 435.7 980.8 588.81 980.8 678.55 919.51 722.24 883.6 596.68 942.93"/>
    <polygon class="cls-6" points="586.84 818.42 567.95 805.15 456.95 805.15 438.06 818.42 427.43 905.85 437.27 897.27 587.63 897.27 597.86 905.85 586.84 818.42"/>
    <polygon class="cls-7" points="988.32 355.88 1021.78 194.28 971.4 44 586.84 326.99 734.84 451.12 943.84 511.62 989.9 458.14 969.82 443.7 1001.7 414.82 977.3 396.08 1009.18 371.88 988.32 355.88"/>
    <polygon class="cls-7" points="3.13 194.3 36.98 355.9 15.33 371.91 47.6 396.11 23.2 414.84 55.08 443.73 35.01 458.17 81.06 511.64 290.06 451.14 438.06 327.02 53.51 44.03 3.13 194.3"/>
    <polygon class="cls-1" points="943.84 511.62 734.84 451.12 797.81 545.58 703.74 727.87 828.12 726.31 1013.9 726.31 943.84 511.62"/>
    <polygon class="cls-1" points="290.06 451.12 81.06 511.62 11.39 726.31 196.78 726.31 321.16 727.87 227.09 545.58 290.06 451.12"/>
    <polygon class="cls-1" points="573.46 555.72 586.84 326.99 647.45 164.22 377.44 164.22 438.06 326.99 451.44 555.72 456.56 627.54 456.95 805.14 567.95 805.14 568.34 627.54 573.46 555.72"/>
  </g>
</svg>